<?xml version="1.0" encoding="UTF-8"?>
<svg width="48" height="48" viewBox="0 0 48 48" fill="none" xmlns="http://www.w3.org/2000/svg">
  <path d="M32 22C35.3137 22 38 19.3137 38 16C38 12.6863 35.3137 10 32 10C28.6863 10 26 12.6863 26 16C26 19.3137 28.6863 22 32 22Z" stroke="currentColor" stroke-width="2"/>
  <path d="M16 22C19.3137 22 22 19.3137 22 16C22 12.6863 19.3137 10 16 10C12.6863 10 10 12.6863 10 16C10 19.3137 12.6863 22 16 22Z" stroke="currentColor" stroke-width="2"/>
  <path d="M42 38V36C42 31.5817 38.4183 28 34 28H30C25.5817 28 22 31.5817 22 36V38" stroke="currentColor" stroke-width="2" stroke-linecap="round"/>
  <path d="M26 38V36C26 31.5817 22.4183 28 18 28H14C9.58172 28 6 31.5817 6 36V38" stroke="currentColor" stroke-width="2" stroke-linecap="round"/>
  <path d="M24 28V32M22 30H26" stroke="currentColor" stroke-width="2" stroke-linecap="round"/>
</svg>
