<?xml version="1.0" encoding="UTF-8"?>
<svg width="48" height="48" viewBox="0 0 48 48" fill="none" xmlns="http://www.w3.org/2000/svg">
  <path d="M24 16H36C38.2091 16 40 17.7909 40 20V32C40 34.2091 38.2091 36 36 36H24C21.7909 36 20 34.2091 20 32V20C20 17.7909 21.7909 16 24 16Z" stroke="currentColor" stroke-width="2"/>
  <path d="M8 12C8 10.8954 8.89543 10 10 10H16C17.1046 10 18 10.8954 18 12V35C18 36.1046 17.1046 37 16 37H10C8.89543 37 8 36.1046 8 35V12Z" stroke="currentColor" stroke-width="2"/>
  <path d="M26 24H34C35.1046 24 36 24.8954 36 26V32C36 33.1046 35.1046 34 34 34H26C24.8954 34 24 33.1046 24 32V26C24 24.8954 24.8954 24 26 24Z" fill="currentColor"/>
  <path d="M31 18H29V22H31V18Z" fill="currentColor"/>
  <path d="M14 17H12V21H14V17Z" fill="currentColor"/>
  <path d="M14 25H12V29H14V25Z" fill="currentColor"/>
</svg> 