<?xml version="1.0" encoding="UTF-8"?>
<svg width="24" height="24" viewBox="0 0 24 24" fill="none" xmlns="http://www.w3.org/2000/svg">
  <path d="M12 15C15.3137 15 18 12.3137 18 9C18 5.68629 15.3137 3 12 3C8.68629 3 6 5.68629 6 9C6 12.3137 8.68629 15 12 15Z" stroke="currentColor" stroke-width="2" stroke-linecap="round"/>
  <path d="M3 20.4V21H21V20.4C21 18.1598 21 17.0397 20.5641 16.184C20.1806 15.4314 19.5686 14.8195 18.816 14.436C17.9603 14 16.8402 14 14.6 14H9.4C7.15979 14 6.03969 14 5.18404 14.436C4.43139 14.8195 3.81947 15.4314 3.43597 16.184C3 17.0397 3 18.1598 3 20.4Z" stroke="currentColor" stroke-width="2"/>
</svg>
