<?xml version="1.0" encoding="UTF-8"?>
<svg width="24" height="24" viewBox="0 0 24 24" fill="none" xmlns="http://www.w3.org/2000/svg">
  <path d="M12 15C13.6569 15 15 13.6569 15 12C15 10.3431 13.6569 9 12 9C10.3431 9 9 10.3431 9 12C9 13.6569 10.3431 15 12 15Z" stroke="currentColor" stroke-width="2"/>
  <path d="M19.4 15C19.1277 15.6171 19.2583 16.3378 19.73 16.82L19.79 16.88C20.1656 17.2551 20.3766 17.7642 20.3766 18.295C20.3766 18.8258 20.1656 19.3349 19.79 19.71C19.4149 20.0856 18.9058 20.2966 18.375 20.2966C17.8442 20.2966 17.3351 20.0856 16.96 19.71L16.9 19.65C16.4178 19.1783 15.6971 19.0477 15.08 19.32C14.4755 19.5791 14.0826 20.1724 14.08 20.83V21C14.08 22.1046 13.1846 23 12.08 23C10.9754 23 10.08 22.1046 10.08 21V20.91C10.0642 20.2256 9.63587 19.6135 9 19.36C8.38291 19.0877 7.66219 19.2183 7.18 19.69L7.12 19.75C6.74486 20.1256 6.23582 20.3366 5.705 20.3366C5.17418 20.3366 4.66514 20.1256 4.29 19.75C3.91445 19.3749 3.70343 18.8658 3.70343 18.335C3.70343 17.8042 3.91445 17.2951 4.29 16.92L4.35 16.86C4.82167 16.3778 4.95231 15.6571 4.68 15.04C4.42093 14.4355 3.82764 14.0426 3.17 14.04H3C1.89543 14.04 1 13.1446 1 12.04C1 10.9354 1.89543 10.04 3 10.04H3.09C3.77444 10.0242 4.38645 9.59587 4.64 8.96C4.91231 8.34291 4.78167 7.62219 4.31 7.14L4.25 7.08C3.87445 6.70486 3.66343 6.19582 3.66343 5.665C3.66343 5.13418 3.87445 4.62514 4.25 4.25C4.62514 3.87445 5.13418 3.66343 5.665 3.66343C6.19582 3.66343 6.70486 3.87445 7.08 4.25L7.14 4.31C7.62219 4.78167 8.34291 4.91231 8.96 4.64H9C9.60447 4.38096 10.0074 3.78767 10.01 3.13V3C10.01 1.89543 10.9054 1 12.01 1C13.1146 1 14.01 1.89543 14.01 3V3.09C14.0126 3.74767 14.4155 4.34096 15.02 4.6C15.6371 4.87231 16.3578 4.74167 16.84 4.27L16.9 4.21C17.2751 3.83445 17.7842 3.62343 18.315 3.62343C18.8458 3.62343 19.3549 3.83445 19.73 4.21C20.1056 4.58514 20.3166 5.09418 20.3166 5.625C20.3166 6.15582 20.1056 6.66486 19.73 7.04L19.67 7.1C19.1983 7.58219 19.0677 8.30291 19.34 8.92V9C19.599 9.60447 20.1923 10.0074 20.85 10.01H21C22.1046 10.01 23 10.9054 23 12.01C23 13.1146 22.1046 14.01 21 14.01H20.91C20.2523 14.0126 19.659 14.4155 19.4 15Z" stroke="currentColor" stroke-width="2" stroke-linecap="round" stroke-linejoin="round"/>
</svg>
